<svg width="512" height="512" version="1.1" viewBox="0 0 512 512" xml:space="preserve" xmlns="http://www.w3.org/2000/svg"><g stroke-linecap="square" stroke-linejoin="round"><rect width="512" height="512" fill="#a8493d" stroke-width="39.621" style="paint-order:stroke fill markers"/><g transform="matrix(1.1072 0 0 1.1072 -22.032 -15.789)" fill="#fff" stroke-width="106.94"><path d="m118.68 175.04c9.9238-12.661 22.756-22.072 38.498-28.232 16.083-6.5018 34.391-9.7527 54.923-9.7527l-0.61171 43.731c-8.8972-1.0266-21.317 11.178-29.412 17.423-18.116 13.975-30.453 27.964-41.325 42.019-8.8725 11.845-17.452 28.574-17.452 51.843v127.81h-97.527v-278.21h92.908z" style="paint-order:stroke fill markers"/><path d="m340.93 348.85q20.019 0 34.391-5.6463 14.886-5.6463 29.771-18.479l50.817 53.383q-39.524 45.17-118.06 45.17-48.764 0-85.721-18.479t-57.49-51.33q-20.019-32.851-20.019-74.429 0-41.064 20.019-73.402 20.019-32.851 54.923-51.33 35.418-18.479 79.048-18.479 40.551 0 73.915 16.939 33.878 16.426 53.897 48.764 20.019 31.825 20.019 75.969l-198.65 37.984q15.912 33.365 63.136 33.365zm-11.806-143.72q-25.152 0-41.064 15.912-15.912 15.399-17.966 44.657l112.93-22.072q-5.133-17.452-19.505-27.718-14.372-10.779-34.391-10.779z" style="paint-order:stroke fill markers"/></g></g></svg>
