<svg xmlns="http://www.w3.org/2000/svg" xmlns:xlink="http://www.w3.org/1999/xlink" contentStyleType="text/css" height="376px" preserveAspectRatio="none" style="width:740px;height:376px;background:#FFFFFF;" version="1.1" viewBox="0 0 740 376" width="740px" zoomAndPan="magnify"><defs/><g><!--cluster ?????--><g id="cluster_テスト環境"><rect fill="none" height="287" rx="2.5" ry="2.5" style="stroke:#181818;stroke-width:1.0;" width="198.28" x="7" y="7"/><text fill="#000000" font-family="sans-serif" font-size="14" font-weight="bold" lengthAdjust="spacing" textLength="69.9997" x="71.1402" y="21.9951">テスト環境</text></g><!--cluster git??????????--><g id="cluster_gitホスティングサービス"><rect fill="none" height="85" rx="2.5" ry="2.5" style="stroke:#181818;stroke-width:1.0;" width="176.85" x="239.85" y="285"/><text fill="#000000" font-family="sans-serif" font-size="14" font-weight="bold" lengthAdjust="spacing" textLength="161.5121" x="247.519" y="299.9951">gitホスティングサービス</text></g><!--cluster ??????????--><g id="cluster_ホスティングサービス"><rect fill="none" height="150" rx="2.5" ry="2.5" style="stroke:#181818;stroke-width:1.0;" width="165.62" x="569.28" y="131"/><text fill="#000000" font-family="sans-serif" font-size="14" font-weight="bold" lengthAdjust="spacing" textLength="139.9994" x="582.0903" y="145.9951">ホスティングサービス</text></g><g id="elem_uc1"><ellipse cx="106.1392" cy="122.9958" fill="#F1F1F1" rx="71.9292" ry="16.7858" style="stroke:#181818;stroke-width:0.5;"/><text fill="#000000" font-family="sans-serif" font-size="14" lengthAdjust="spacing" textLength="97.9996" x="54.1394" y="126.7434">プログラム変更</text></g><g id="elem_uc2"><ellipse cx="106.1367" cy="189.9973" fill="#F1F1F1" rx="62.0867" ry="14.8173" style="stroke:#181818;stroke-width:0.5;"/><text fill="#000000" font-family="sans-serif" font-size="14" lengthAdjust="spacing" textLength="69.9997" x="68.1369" y="193.7449">記事の更新</text></g><g id="elem_uc3"><ellipse cx="106.1371" cy="57.0011" fill="#F1F1F1" rx="41.4071" ry="14.5911" style="stroke:#181818;stroke-width:0.5;"/><text fill="#000000" font-family="sans-serif" font-size="14" lengthAdjust="spacing" textLength="41.9998" x="82.212" y="60.7306">ビルド</text></g><g id="elem_uc4"><ellipse cx="106.1377" cy="258.9975" fill="#F1F1F1" rx="83.1377" ry="19.0275" style="stroke:#181818;stroke-width:0.5;"/><text fill="#000000" font-family="sans-serif" font-size="14" lengthAdjust="spacing" textLength="125.9995" x="42.5914" y="262.0293">コミット・プッシュ</text></g><g id="elem_uc5"><ellipse cx="327.7792" cy="336.9958" fill="#F1F1F1" rx="71.9292" ry="16.7858" style="stroke:#181818;stroke-width:0.5;"/><text fill="#000000" font-family="sans-serif" font-size="14" lengthAdjust="spacing" textLength="97.9996" x="275.7794" y="340.7434">継続的デプロイ</text></g><g id="elem_uc6"><ellipse cx="652.0941" cy="249.0028" fill="#F1F1F1" rx="66.8141" ry="15.7628" style="stroke:#181818;stroke-width:0.5;"/><text fill="#000000" font-family="sans-serif" font-size="14" lengthAdjust="spacing" textLength="83.9996" x="607.0943" y="252.7504">自動デプロイ</text></g><g id="elem_uc7"><ellipse cx="652.0941" cy="182.0028" fill="#F1F1F1" rx="66.8141" ry="15.7628" style="stroke:#181818;stroke-width:0.5;"/><text fill="#000000" font-family="sans-serif" font-size="14" lengthAdjust="spacing" textLength="83.9996" x="607.0943" y="185.7504">手動デプロイ</text></g><!--entity user--><g id="elem_user"><ellipse cx="327.7781" cy="126.35" fill="#F1F1F1" rx="8" ry="8" style="stroke:#181818;stroke-width:0.5;"/><path d="M327.7781,134.35 L327.7781,161.35 M314.7781,142.35 L340.7781,142.35 M327.7781,161.35 L314.7781,176.35 M327.7781,161.35 L340.7781,176.35 " fill="none" style="stroke:#181818;stroke-width:0.5;"/><text fill="#000000" font-family="sans-serif" font-size="14" lengthAdjust="spacing" textLength="30.5361" x="312.51" y="190.8451">user</text></g><g id="elem_note1"><path d="M252.28,33.87 L252.28,51.02 L147.94,56.44 L252.28,59.02 L252.28,74.1356 A0,0 0 0 0 252.28,74.1356 L403.2802,74.1356 A0,0 0 0 0 403.2802,74.1356 L403.2802,43.87 L393.2802,33.87 L252.28,33.87 A0,0 0 0 0 252.28,33.87 " fill="#FEFFDD" style="stroke:#181818;stroke-width:0.5;"/><path d="M393.2802,33.87 L393.2802,43.87 L403.2802,43.87 L393.2802,33.87 " fill="#FEFFDD" style="stroke:#181818;stroke-width:0.5;"/><text fill="#000000" font-family="sans-serif" font-size="13" lengthAdjust="spacing" textLength="78.0001" x="258.28" y="50.9369">ビルド結果は</text><text fill="#000000" font-family="sans-serif" font-size="13" lengthAdjust="spacing" textLength="130.0002" x="258.28" y="66.0697">必要に応じて確認する</text></g><g id="elem_note2"><path d="M252.28,228.87 L252.28,269.1356 L403.2802,269.1356 L403.2802,238.87 L393.2802,228.87 L252.28,228.87 " fill="#FEFFDD" style="stroke:#181818;stroke-width:0.5;"/><path d="M393.2802,228.87 L393.2802,238.87 L403.2802,238.87 L393.2802,228.87 " fill="#FEFFDD" style="stroke:#181818;stroke-width:1.0;"/><text fill="#000000" font-family="sans-serif" font-size="13" lengthAdjust="spacing" textLength="91.0001" x="258.28" y="245.9369">プッシュすると</text><text fill="#000000" font-family="sans-serif" font-size="13" lengthAdjust="spacing" textLength="130.0002" x="258.28" y="261.0697">自動でデプロイ・公開</text></g><!--reverse link uc1 to user--><g id="link_uc1_user"><path d="M173.3834,132.9514 C222.9034,140.3914 283.49,149.5 312.38,153.84 " fill="none" id="uc1-backto-user" style="stroke:#181818;stroke-width:1.0;"/><polygon fill="#181818" points="167.45,132.06,175.7558,137.3528,172.3945,132.8029,176.9444,129.4416,167.45,132.06" style="stroke:#181818;stroke-width:1.0;"/></g><!--reverse link uc2 to user--><g id="link_uc2_user"><path d="M165.1195,181.0229 C215.0995,173.2929 281.47,163.01 312.14,158.27 " fill="none" id="uc2-backto-user" style="stroke:#181818;stroke-width:1.0;"/><polygon fill="#181818" points="159.19,181.94,168.6956,184.5174,164.1313,181.1758,167.4729,176.6114,159.19,181.94" style="stroke:#181818;stroke-width:1.0;"/></g><!--reverse link uc3 to user--><g id="link_uc3_user"><path d="M147.1447,66.5883 C168.3247,72.1283 190.01,78.8 213.28,89 C250.79,105.44 291.33,131.65 312.33,145.92 " fill="none" id="uc3-backto-user" style="stroke:#181818;stroke-width:1.0;"/><polygon fill="#181818" points="141.34,65.07,149.0349,71.2173,146.1773,66.3353,151.0593,63.4777,141.34,65.07" style="stroke:#181818;stroke-width:1.0;"/></g><!--reverse link uc4 to user--><g id="link_uc4_user"><path d="M163.3163,241.7755 C181.1963,235.7555 195.58,230.23 213.28,222 C221.97,217.96 223.57,215.85 231.85,211 C260.28,194.34 293.63,175.08 312.28,164.34 " fill="none" id="uc4-backto-user" style="stroke:#181818;stroke-width:1.0;"/><polygon fill="#181818" points="157.63,243.69,167.4359,244.6091,162.3686,242.0946,164.8832,237.0273,157.63,243.69" style="stroke:#181818;stroke-width:1.0;"/></g><!--link user to uc7--><g id="link_user_uc7"><path d="M343.46,157.18 C386.01,160.62 505.2394,170.238 582.1694,176.438 " fill="none" id="user-to-uc7" style="stroke:#181818;stroke-width:1.0;"/><polygon fill="#181818" points="588.15,176.92,579.5004,172.2099,583.1662,176.5183,578.8578,180.1841,588.15,176.92" style="stroke:#181818;stroke-width:1.0;"/><text fill="#000000" font-family="sans-serif" font-size="13" lengthAdjust="spacing" textLength="78.0001" x="454.78" y="147.0669">ビルド結果を</text><text fill="#000000" font-family="sans-serif" font-size="13" lengthAdjust="spacing" textLength="117.0001" x="435.28" y="162.1997">手動デプロイも可能</text></g><!--link uc4 to uc5--><g id="link_uc4_uc5"><path d="M152.65,275.16 C192.23,289.22 243.3559,307.3723 281.2059,320.8123 " fill="none" id="uc4-to-uc5" style="stroke:#181818;stroke-width:1.0;"/><polygon fill="#181818" points="286.86,322.82,279.7173,316.039,282.1482,321.1469,277.0403,323.5779,286.86,322.82" style="stroke:#181818;stroke-width:1.0;"/></g><!--link uc5 to uc6--><g id="link_uc5_uc6"><path d="M375.99,324.11 C438.15,307.14 540.8317,279.0996 601.3317,262.5896 " fill="none" id="uc5-to-uc6" style="stroke:#181818;stroke-width:1.0;"/><polygon fill="#181818" points="607.12,261.01,597.3844,259.5205,602.2964,262.3263,599.4906,267.2383,607.12,261.01" style="stroke:#181818;stroke-width:1.0;"/></g><!--link uc4 to note2--><g id="link_uc4_note2"><path d="M187.99,255.32 C208.9,254.37 231.33,253.35 251.92,252.41 " fill="none" id="uc4-note2" style="stroke:#181818;stroke-width:1.0;stroke-dasharray:7.0,7.0;"/></g><!--link note2 to uc6--><g id="link_note2_uc6"><path d="M403.53,249 C458.39,249 532.22,249 584.94,249 " fill="none" id="note2-uc6" style="stroke:#181818;stroke-width:1.0;stroke-dasharray:7.0,7.0;"/></g><!--SRC=[bP7BJi9G48RtVOeJzYMXN4o8yKdO4ApOX9G4oiguw1aH2J4QZCZ5g45411KI10DeU9Yn5z_2Ssg14jcuQMOw_tppdvcKlASHBKqoId9V8xjAHaveIbeLehcid8aAF8shoPHC48wHJX1EhFB0Q08v40YJ9E9PcVWGhX1Ua0uGdX3kZ5RHRBpvI3nBSec0HsTtgb_J4kglh6nM1gv2MYDT8FGGYcujwAtH8S8j0Z0J23DdA21zHtXmrI7XqECugMW83SSqitwFCEGEwGZXWu-XaxKtMEEQDQvRzIE4mk8zBPSRNkF-0seNkaRfSWCnuX6PnT9cqHORonQuBOhy62oKLc5m5OQM8Vk8uWvh956otAGrEZTlhf6MO-hVIKYfSTQtuPDpdDumYy9E517KjEQzYKlI-p7LcEVjjevwpvYp7rNKsrPpQdTFKQyXBJd-UNE0EoL-lviiUAl3_UfHxyHKTrVwuve_c1dvv-_A2Ybnfmkav20bdZA_Fm00]--></g></svg>